<svg width="103" height="34" viewBox="0 0 103 34" fill="none" xmlns="http://www.w3.org/2000/svg">
<path d="M54.6426 19.5862C54.6426 19.0328 54.4473 18.6096 54.0566 18.3167C53.666 18.0172 52.9629 17.7047 51.9473 17.3792C50.9316 17.0471 50.1276 16.7216 49.5352 16.4026C47.9206 15.5302 47.1133 14.3551 47.1133 12.8772C47.1133 12.109 47.3281 11.4254 47.7578 10.8264C48.194 10.2209 48.8158 9.74894 49.623 9.4104C50.4368 9.07186 51.3483 8.90259 52.3574 8.90259C53.373 8.90259 54.278 9.08813 55.0723 9.45923C55.8665 9.82381 56.4818 10.3414 56.918 11.012C57.3607 11.6825 57.582 12.4443 57.582 13.2971H54.6523C54.6523 12.6461 54.4473 12.1415 54.0371 11.7834C53.627 11.4189 53.0508 11.2366 52.3086 11.2366C51.5924 11.2366 51.0358 11.3896 50.6387 11.6956C50.2415 11.995 50.043 12.3922 50.043 12.887C50.043 13.3492 50.2741 13.7366 50.7363 14.0491C51.2051 14.3616 51.8919 14.6545 52.7969 14.928C54.4635 15.4293 55.6777 16.051 56.4395 16.7932C57.2012 17.5354 57.582 18.4599 57.582 19.5667C57.582 20.7971 57.1165 21.7639 56.1855 22.467C55.2546 23.1637 54.0013 23.512 52.4258 23.512C51.332 23.512 50.3359 23.3134 49.4375 22.9163C48.5391 22.5126 47.8522 21.9625 47.377 21.2659C46.9082 20.5693 46.6738 19.762 46.6738 18.844H49.6133C49.6133 20.413 50.5508 21.1975 52.4258 21.1975C53.1224 21.1975 53.666 21.0575 54.0566 20.7776C54.4473 20.4911 54.6426 20.094 54.6426 19.5862ZM71.1465 23.3167H68.2168V17.2229H62.5039V23.3167H59.5742V9.0979H62.5039V14.8596H68.2168V9.0979H71.1465V23.3167ZM85.3945 16.5295C85.3945 17.9293 85.1471 19.1565 84.6523 20.2112C84.1576 21.2659 83.4479 22.0797 82.5234 22.6526C81.6055 23.2255 80.5508 23.512 79.3594 23.512C78.181 23.512 77.1296 23.2288 76.2051 22.6624C75.2806 22.0959 74.5645 21.2887 74.0566 20.2405C73.5488 19.1858 73.2917 17.9749 73.2852 16.6077V15.9045C73.2852 14.5048 73.5358 13.2743 74.0371 12.2131C74.5449 11.1454 75.2578 10.3284 76.1758 9.76196C77.1003 9.18905 78.1549 8.90259 79.3398 8.90259C80.5247 8.90259 81.5762 9.18905 82.4941 9.76196C83.4186 10.3284 84.1315 11.1454 84.6328 12.2131C85.1406 13.2743 85.3945 14.5015 85.3945 15.8948V16.5295ZM82.4258 15.885C82.4258 14.3941 82.1589 13.2613 81.625 12.4866C81.0911 11.7118 80.3294 11.3245 79.3398 11.3245C78.3568 11.3245 77.5983 11.7086 77.0645 12.4768C76.5306 13.2385 76.2604 14.3583 76.2539 15.8362V16.5295C76.2539 17.9814 76.5208 19.1077 77.0547 19.9084C77.5885 20.7092 78.3568 21.1096 79.3594 21.1096C80.3424 21.1096 81.0977 20.7255 81.625 19.9573C82.1523 19.1825 82.4193 18.0562 82.4258 16.5784V15.885ZM90.4531 18.3069V23.3167H87.5234V9.0979H93.0703C94.138 9.0979 95.0755 9.29321 95.8828 9.68384C96.6966 10.0745 97.3216 10.6311 97.7578 11.3538C98.194 12.0699 98.4121 12.887 98.4121 13.8049C98.4121 15.1982 97.9336 16.2984 96.9766 17.1057C96.026 17.9065 94.7077 18.3069 93.0215 18.3069H90.4531ZM90.4531 15.9338H93.0703C93.8451 15.9338 94.4342 15.7515 94.8379 15.387C95.248 15.0224 95.4531 14.5015 95.4531 13.8245C95.4531 13.1278 95.248 12.5647 94.8379 12.135C94.4277 11.7053 93.8613 11.484 93.1387 11.4709H90.4531V15.9338Z" fill="white"/>
<path fill-rule="evenodd" clip-rule="evenodd" d="M3.11619 24.9343L12.6683 31.7625L35.7723 18.2497L34.7878 17.6129L13.0278 30.3398L12.5833 30.5993L12.1584 30.2957L3.96602 24.4374L3.11619 24.9343ZM22.996 14.9792L22.3443 14.3995C22.0256 14.7013 21.7265 14.9093 21.4485 15.0271C21.1705 15.1449 20.8482 15.1761 20.4906 15.1228C20.1294 15.0676 19.7717 14.9019 19.4123 14.6277L19.8444 13.8381C20.2392 14.0976 20.5721 14.2357 20.8447 14.2485C21.2342 14.2651 21.5494 14.1528 21.7955 13.9117L19.7541 12.0934C19.4549 12.3105 19.1096 12.4927 18.713 12.6418C18.4209 12.7559 18.1252 12.778 17.8242 12.7118C17.5232 12.6455 17.2434 12.4964 16.9814 12.2664C16.5192 11.8541 16.2838 11.3498 16.2785 10.7553C16.2732 10.3559 16.4325 9.91239 16.7583 9.4265L16.4467 9.15044L16.776 8.75104L17.0876 9.02713C17.4452 8.66823 17.8135 8.4584 18.1889 8.39399C18.6669 8.31116 19.1379 8.42343 19.6 8.73079L19.1344 9.51485C18.844 9.32528 18.5767 9.23142 18.3359 9.23694C18.0933 9.23878 17.8596 9.33263 17.6347 9.513L19.5098 11.1805C19.8727 10.9155 20.1223 10.7498 20.2604 10.6799C20.5207 10.5492 20.7703 10.4756 21.0076 10.4572C21.2448 10.4369 21.4804 10.47 21.7141 10.5547C21.9478 10.6412 22.1673 10.7756 22.3727 10.9559C22.8224 11.3571 23.0738 11.8394 23.1323 12.4062C23.1889 12.9713 23.0314 13.4976 22.6649 13.989L23.3235 14.5762L22.996 14.9792ZM17.2983 9.91055C17.1213 10.2069 17.0504 10.5032 17.0929 10.7995C17.1318 11.0977 17.2646 11.3443 17.4895 11.5449C17.7108 11.7418 17.9499 11.8449 18.203 11.8486C18.4598 11.8522 18.752 11.7363 19.0813 11.497L17.2983 9.91055ZM22.1266 13.5124C22.3107 13.2216 22.3816 12.9068 22.332 12.5682C22.2878 12.2314 22.1249 11.9369 21.8486 11.6903C21.6114 11.4805 21.3724 11.3719 21.1298 11.3664C20.8872 11.3608 20.5702 11.4989 20.1825 11.7823L22.1266 13.5124ZM19.1255 6.07132C20.1082 6.13021 21.1298 6.40997 22.1036 6.92899C23.6475 7.75352 24.7895 9.03447 25.3862 10.4369C25.9988 11.878 26.0413 13.4516 25.372 14.8173L35.7705 8.73447L25.7155 2.22288L19.1255 6.07132ZM20.719 17.5393L12.6665 22.2491L3.11446 15.4209L13.851 9.15044C13.3553 10.4277 13.4403 11.8504 13.9998 13.1645C14.5947 14.567 15.7349 15.8461 17.2806 16.6724C18.4067 17.2724 19.5965 17.5522 20.719 17.5393ZM17.6985 7.44982C16.5671 7.69276 15.6163 8.34798 15.1187 9.35472C14.623 10.3596 14.6637 11.543 15.1329 12.6455C15.6198 13.7921 16.5653 14.843 17.8489 15.5295C19.1343 16.2178 20.5066 16.4037 21.6875 16.1479C22.8207 15.905 23.7696 15.2498 24.2672 14.243C24.7629 13.2381 24.7223 12.0547 24.2548 10.9522C23.7679 9.80747 22.8225 8.75472 21.5388 8.06822C20.2516 7.38172 18.8794 7.19584 17.6985 7.44982ZM12.1567 23.9607L12.5816 24.2644L13.0259 24.0031L34.8958 11.2118L35.7705 11.7786L12.6665 25.2914L3.11446 18.4614L3.85979 18.0271L12.1567 23.9607ZM2.34773 16.9467L1.09244 16.0485L0.00529523 15.2718L1.15793 14.5982L25.333 0.481791L25.758 0.233337L26.1705 0.50204L37.8189 8.04797L39 8.81361L37.7853 9.52221L36.53 10.2566L37.8189 11.0903L39 11.8559L37.7853 12.5645L36.3282 13.4185L37.8189 14.3847L39 15.1504L37.7853 15.8608L36.4202 16.6596L37.8172 17.5651L38.9982 18.3307L37.7836 19.0393L13.0225 33.522L12.578 33.7833L12.1531 33.4797L1.08887 25.5693L0.00183712 24.7908L1.15447 24.119L2.44694 23.3626L1.08714 22.3908L0 21.6123L1.15263 20.9405L2.53544 20.1325L1.08714 19.0964L0 18.3197L1.15263 17.6461L2.34773 16.9467ZM34.6922 14.3737L35.7687 15.0712L12.6648 28.584L3.11262 21.7559L4.05107 21.2092L12.1531 27.003L12.578 27.3067L13.0225 27.0454L34.6922 14.3737Z" fill="white"/>
</svg>
